<?xml version="1.0" encoding="iso-8859-1"?>
<!-- Generator: Adobe Illustrator 16.0.0, SVG Export Plug-In . SVG Version: 6.00 Build 0)  -->
<!DOCTYPE svg PUBLIC "-//W3C//DTD SVG 1.1//EN" "http://www.w3.org/Graphics/SVG/1.1/DTD/svg11.dtd">
<svg version="1.1" id="Capa_1" xmlns="http://www.w3.org/2000/svg" xmlns:xlink="http://www.w3.org/1999/xlink" x="0px" y="0px"
	 width="30px" height="30px" viewBox="0 0 30 30" style="enable-background:new 0 0 30 30;" xml:space="preserve">
<g>
	<g>
		<g>
			<path d="M26.175,16.17h-0.129V7.125c-0.394-0.18-0.749-0.424-1.047-0.729c-0.272,0.279-0.601,0.501-0.953,0.677v9.097H5.953
				V7.073C5.599,6.896,5.272,6.676,5,6.396C4.701,6.701,4.344,6.944,3.953,7.125v9.045H3.824c-1.197,0-2.168,0.971-2.168,2.168
				v10.896c0,0.414,0.335,0.749,0.748,0.749h25.192c0.412,0,0.747-0.335,0.747-0.749V18.338
				C28.343,17.141,27.373,16.17,26.175,16.17z M15.001,18.559c2.692,0,4.933,1.158,5.423,2.693H9.578
				C10.068,19.717,12.306,18.559,15.001,18.559z M15.001,27.592c-2.694,0-4.933-1.158-5.423-2.692h10.846
				C19.934,26.434,17.693,27.592,15.001,27.592z M20.736,24.119H9.264c-0.576,0-1.044-0.467-1.044-1.043
				c0-0.577,0.468-1.045,1.044-1.045h11.472c0.575,0,1.043,0.468,1.043,1.045C21.779,23.652,21.312,24.119,20.736,24.119z"/>
			<path d="M28.936,0.018H1.063C0.476,0.018,0,0.494,0,1.081v2.868c0,1.381,1.119,2.5,2.5,2.5S5,5.33,5,3.949
				c0,1.381,1.119,2.5,2.5,2.5S10,5.33,10,3.949c0,1.381,1.119,2.5,2.5,2.5S15,5.33,15,3.949c0,1.381,1.119,2.5,2.5,2.5
				S20,5.33,20,3.949c0,1.381,1.119,2.5,2.5,2.5S25,5.33,25,3.949c0,1.381,1.119,2.5,2.5,2.5S30,5.33,30,3.949V1.082
				C30,0.494,29.523,0.018,28.936,0.018z"/>
		</g>
	</g>
</g>
<g>
</g>
<g>
</g>
<g>
</g>
<g>
</g>
<g>
</g>
<g>
</g>
<g>
</g>
<g>
</g>
<g>
</g>
<g>
</g>
<g>
</g>
<g>
</g>
<g>
</g>
<g>
</g>
<g>
</g>
</svg>
