<?xml version="1.0" encoding="iso-8859-1"?>
<!-- Generator: Adobe Illustrator 16.0.0, SVG Export Plug-In . SVG Version: 6.00 Build 0)  -->
<!DOCTYPE svg PUBLIC "-//W3C//DTD SVG 1.1//EN" "http://www.w3.org/Graphics/SVG/1.1/DTD/svg11.dtd">
<svg version="1.1" id="Capa_1" xmlns="http://www.w3.org/2000/svg" xmlns:xlink="http://www.w3.org/1999/xlink" x="0px" y="0px"
	 width="438.162px" height="438.161px" viewBox="0 0 438.162 438.161" style="enable-background:new 0 0 438.162 438.161;"
	 xml:space="preserve">
<g>
	<g>
		<circle cx="330.536" cy="46.147" r="36.911"/>
		<path d="M24.306,304.66l99.45-0.163c21.085,0.746,29.003-9.056,29.003-9.056l49.027-54.688l57.021,55.472l-23.123,102.797
			c-0.487,1.941-0.745,3.959-0.745,6.034c0,13.187,10.7,23.868,23.868,23.868c11.542,0,21.161-8.176,23.39-19.049l28.171-125.393
			c5.967-19.575-4.58-29.357-4.58-29.357l-50.185-50.184l54.793-63.352l35.027,35.247c0,0,13.933,14.679,31.279-2.648l57.136-57.528
			c2.706-3.328,4.322-7.525,4.322-12.154c0-10.585-8.587-19.221-19.201-19.221c-4.676,0-8.989,1.702-12.336,4.523l-47.354,47.287
			L302.116,79.96c-4.331-4.217-10.27-6.847-16.839-6.847h-89.658c-5.757,0-10.931,2.639-14.344,6.77l-61.889,71.25
			c-3.844,3.414-6.292,8.367-6.292,13.933c0,10.232,8.338,18.58,18.608,18.58c5.775,0,10.921-2.63,14.334-6.799l57.442-66.345
			l33.076,0.153l-126.482,146.66l-85.537-0.221c-1.999-0.057-4.026,0.135-6.053,0.564c-12.861,2.879-20.77,15.463-17.892,28.353
			C3.116,297.259,13.204,304.842,24.306,304.66z"/>
		<circle cx="375.891" cy="382.106" r="46.809"/>
	</g>
</g>
<g>
</g>
<g>
</g>
<g>
</g>
<g>
</g>
<g>
</g>
<g>
</g>
<g>
</g>
<g>
</g>
<g>
</g>
<g>
</g>
<g>
</g>
<g>
</g>
<g>
</g>
<g>
</g>
<g>
</g>
</svg>
