<?xml version="1.0" encoding="iso-8859-1"?>
<!-- Generator: Adobe Illustrator 16.0.0, SVG Export Plug-In . SVG Version: 6.00 Build 0)  -->
<!DOCTYPE svg PUBLIC "-//W3C//DTD SVG 1.1//EN" "http://www.w3.org/Graphics/SVG/1.1/DTD/svg11.dtd">
<svg version="1.1" id="Capa_1" xmlns="http://www.w3.org/2000/svg" xmlns:xlink="http://www.w3.org/1999/xlink" x="0px" y="0px"
	 width="31.451px" height="31.451px" viewBox="0 0 31.451 31.451" style="enable-background:new 0 0 31.451 31.451;"
	 xml:space="preserve">
<g>
	<g>
		<polygon points="10.466,24.72 11.706,24.72 11.706,26.455 14.804,26.455 14.804,24.72 24.471,24.72 24.471,26.455 27.568,26.455 
			27.568,24.72 28.559,24.72 28.559,23.645 10.466,23.645 		"/>
		<path d="M10.466,7.079v15.821h18.093V7.079c0,0-1.816-1.817-9.004-2.064C12.366,4.767,10.466,7.079,10.466,7.079z M13.358,7.079
			c0.41,0,0.743,0.335,0.743,0.745c0,0.41-0.333,0.742-0.743,0.742c-0.411,0-0.744-0.332-0.744-0.742
			C12.614,7.414,12.947,7.079,13.358,7.079z M11.87,9.929h6.94v6.735h-6.94V9.929z M13.254,21.374c-0.856,0-1.548-0.694-1.548-1.549
			c0-0.857,0.692-1.551,1.548-1.551s1.549,0.692,1.549,1.551C14.804,20.68,14.111,21.374,13.254,21.374z M23.023,22.076h-6.939
			V21.25h6.939V22.076z M23.023,20.547h-6.939v-0.826h6.939V20.547z M23.023,18.977h-6.939v-0.827h6.939V18.977z M27.568,19.825
			c0,0.854-0.693,1.549-1.551,1.549c-0.854,0-1.547-0.694-1.547-1.549c0-0.857,0.693-1.551,1.547-1.551
			C26.875,18.274,27.568,18.968,27.568,19.825z M25.584,6.914c0.412,0,0.744,0.334,0.744,0.744s-0.333,0.743-0.744,0.743
			c-0.41,0-0.743-0.333-0.743-0.743S25.174,6.914,25.584,6.914z M19.967,9.929h6.939v6.735h-6.939V9.929z"/>
		<rect x="7.74" y="11.004" width="2.23" height="2.974"/>
		<rect x="29.221" y="10.837" width="2.23" height="2.976"/>
		<path d="M4.597,14.861c0.868,0,1.573-0.705,1.573-1.574c0-0.347-0.116-0.664-0.308-0.924l0.181-0.753l-0.845,0.154l-0.345-0.539
			l-0.921,0.614L3.28,11.57l-0.155,0.768l-0.653,0.385l0.578,0.814C3.17,14.287,3.814,14.861,4.597,14.861z"/>
		<polygon points="5.583,23.434 5.174,20.653 3.106,20.631 4.046,23.434 3.442,26.045 3.369,26.045 3.369,26.455 5.671,26.455 
			5.671,26.045 5.2,26.045 		"/>
		<path d="M5.174,20.475v-1.34l-1.632-0.838H3.528v-2.59l1.222,0.02l-0.005,1.521l0.429,0.323v-2.497H2.892l-0.339,0.118v-0.118
			c0,0-0.077-0.003-0.197,0.003v-0.257c0-0.086-0.071-0.155-0.156-0.155c-0.087,0-0.157,0.069-0.157,0.155v0.282
			c-0.384,0.051-1.358,0.177-1.607,0.5C0,16.173,0,20.262,0,20.262l2.553-0.303v-0.282l0.339,0.194v0.604H5.174z M2.553,18.969
			V15.86l0.339-0.09v3.394L2.553,18.969z"/>
		<polygon points="4.565,15.91 3.736,15.903 3.736,18.134 6.181,19.422 6.808,18.608 4.585,17.367 		"/>
	</g>
</g>
<g>
</g>
<g>
</g>
<g>
</g>
<g>
</g>
<g>
</g>
<g>
</g>
<g>
</g>
<g>
</g>
<g>
</g>
<g>
</g>
<g>
</g>
<g>
</g>
<g>
</g>
<g>
</g>
<g>
</g>
</svg>
