<?xml version="1.0" encoding="iso-8859-1"?>
<!-- Generator: Adobe Illustrator 16.0.0, SVG Export Plug-In . SVG Version: 6.00 Build 0)  -->
<!DOCTYPE svg PUBLIC "-//W3C//DTD SVG 1.1//EN" "http://www.w3.org/Graphics/SVG/1.1/DTD/svg11.dtd">
<svg version="1.1" id="Capa_1" xmlns="http://www.w3.org/2000/svg" xmlns:xlink="http://www.w3.org/1999/xlink" x="0px" y="0px"
	 width="564.809px" height="564.808px" viewBox="0 0 564.809 564.808" style="enable-background:new 0 0 564.809 564.808;"
	 xml:space="preserve">
<g>
	<g>
		<path d="M551.947,262.331H413.645v-68.553c0-5.125-4.132-9.257-9.238-9.257c-5.105,0-9.237,4.131-9.237,9.257v68.553H256.877
			c-7.095,0-12.852,5.747-12.852,12.862v34.062c0,7.086,5.766,12.853,12.852,12.853h36.49v155.285c0,5.097,4.141,9.237,9.247,9.237
			h31.288c5.106,0,9.237-4.141,9.237-9.237V322.097h208.808c7.096,0,12.861-5.757,12.861-12.853v-34.062
			C564.799,268.069,559.043,262.331,551.947,262.331z"/>
		<path d="M149.203,298.707v-39.512l22.013-1.004c2.792-0.134,5.499-1.014,7.832-2.534l80.985-52.852
			c7.229-4.705,9.256-14.411,4.542-21.63c-1.836-2.812-4.418-4.81-7.306-5.958l1.233-2.763c0.315-0.698,0.239-1.482-0.115-2.123
			c0.488-2.18,1.635-6.55,3.796-11.418c1.262-2.792,2.678-5.383,4.227-7.679c0.536-0.631,5.413-6.215,16.82-15.262
			c5.04-3.987,8.798-7.286,11.791-10.452c0.373-0.086,0.707-0.287,0.87-0.66c0.048-0.115,0.066-0.229,0.086-0.344
			c3.748-4.141,6.216-8.119,8.491-13.225c2.84-6.369,3.204-13.646,0.966-19.469c-2.027-5.24-5.938-9.161-11.608-11.666
			c-5.355-2.419-11.016-2.62-16.371-0.593c-6.005,2.295-11.398,7.44-14.066,13.407c-4.179,9.4-5.125,16.639-4.141,32.283h-0.01
			c0,0.019,0,0.048,0,0.048c0.957,15.348-0.105,22.672-0.105,22.682c0,0.048-0.698,3.749-2.974,8.884
			c-1.559,3.471-3.49,6.77-5.728,9.839c-0.755,0.172-1.415,0.603-1.759,1.368l-3.204,7.229c-0.86,0.364-1.721,0.775-2.534,1.31
			l-33.038,21.573l-33.947,22.166l-10.414,6.789l-16.333,0.727v-12.958c0,0-0.813-11.073-0.813-19.718s-8.568-11.57-20.148-11.58
			l-26.928-0.029c-12.947,0-23.447,0.01-23.447,12.977v108.888c-0.21,1.329-0.468,2.726-0.535,4.141l-3.481,80.793L9.983,435.211
			c-10.605,7.421-13.168,22.07-5.719,32.666c4.562,6.512,11.829,9.983,19.211,9.983c4.657,0,9.352-1.377,13.454-4.256l73.325-51.446
			c5.958-4.198,9.63-10.911,9.955-18.197l2.859-65.886l48.845,41.808v74.53c0,12.947,10.5,23.447,23.457,23.447
			c12.947,0,23.447-10.5,23.447-23.447v-85.317c0-6.847-2.984-13.349-8.195-17.814L149.203,298.707z"/>
		<circle cx="113.535" cy="141.413" r="34.855"/>
	</g>
</g>
<g>
</g>
<g>
</g>
<g>
</g>
<g>
</g>
<g>
</g>
<g>
</g>
<g>
</g>
<g>
</g>
<g>
</g>
<g>
</g>
<g>
</g>
<g>
</g>
<g>
</g>
<g>
</g>
<g>
</g>
</svg>
