<?xml version="1.0" encoding="iso-8859-1"?>
<!-- Generator: Adobe Illustrator 18.1.1, SVG Export Plug-In . SVG Version: 6.00 Build 0)  -->
<svg version="1.1" id="Capa_1" xmlns="http://www.w3.org/2000/svg" xmlns:xlink="http://www.w3.org/1999/xlink" x="0px" y="0px"
	 viewBox="0 0 492.309 492.309" style="enable-background:new 0 0 492.309 492.309;" xml:space="preserve">
<g>
	<g>
		<path style="fill:#010002;" d="M86.332,353.166c96.667,40.667,226.333,87,389,139c4,0.667,6.166-1,6.5-5
			c0.332-4-1.168-6.333-4.5-7c-162-50.666-313.667-108.333-455-173c-5.333-2-9-0.5-11,4.5s-0.667,8.5,4,10.5
			c11.333,5.333,21.667,10,31,14l-33,25c-4,6-3,11.334,3,16c4.667,2.667,9.333,2.667,14,0L86.332,353.166z"/>
		<path style="fill:#010002;" d="M466.332,207.167l-107-99h1h1c10.666,0,19.832-3.833,27.5-11.5c7.666-7.667,11.5-17,11.5-28
			s-3.834-20.333-11.5-28c-7.668-7.667-16.836-11.5-27.5-11.5c-10.668,0-19.836,3.833-27.5,11.5c-7.668,7.667-11.5,17.167-11.5,28.5
			c0,8,2.332,15.333,7,22l-73-26l-39-57c-3.334-4.667-7.668-7.333-13-8c-5.333-0.667-10,0.667-14,4s-6.333,7.667-7,13c0,4,1,8,3,12
			l40,58c2,2.667,4.333,4.667,7,6l46,18l-76,39c-11.333,6.668-18,16.335-20,29v70l-70,32c-9.333,4.667-14,11.667-14,21
			c0,7.333,2.167,13.333,6.5,18s9.833,7.333,16.5,8c4,0,8-1,12-3l86-39c6.667-3.333,10.667-8.667,12-16v-44l60,54l-11,92v1
			c-0.668,7.334,1.332,13.5,6,18.5c4.666,5,10.332,7.5,17,7.5c6.666,0,12.332-2,17-6c4.666-4,7.332-9,8-15l13-105v-1
			c0.666-7.333-1.668-13.667-7-19l-56-49l84-41l77,71c4,4,8.5,6,13.5,6s9.332-2,13-6c3.666-4,5.5-8.333,5.5-13
			C472.332,215.167,470.332,210.5,466.332,207.167z"/>
	</g>
</g>
<g>
</g>
<g>
</g>
<g>
</g>
<g>
</g>
<g>
</g>
<g>
</g>
<g>
</g>
<g>
</g>
<g>
</g>
<g>
</g>
<g>
</g>
<g>
</g>
<g>
</g>
<g>
</g>
<g>
</g>
</svg>
